<svg xmlns="http://www.w3.org/2000/svg" height="32" viewBox="0 0 538.032 193.08">
  <g transform="translate(-151.93 -201.1)">
    <path d="M202.81,318.61h0l-50.88-29.38V230.48l50.88-29.38,50.89,29.38v58.75Zm0-74.08-13.26,7.66v15.33l13.26,7.66,13.27-7.66V252.19Z" fill="#03a9f5"/>
    <path d="M178.47,341.79V326.47l-13.27-7.66-13.27,7.66v15.32l13.27,7.66Z" fill="#03a9f5"/>
    <path d="M388,369.52a29.48,29.48,0,0,1-15.79-4.29,30.7,30.7,0,0,1-11-11.76,37.33,37.33,0,0,1,0-33.79,30.5,30.5,0,0,1,11-11.63A29.81,29.81,0,0,1,388,303.82a27.29,27.29,0,0,1,12.38,2.65,22.26,22.26,0,0,1,8.59,7.46l.89-8.6h15.29V368H410l-1-9a28.77,28.77,0,0,1-8,7.33Q395.95,369.52,388,369.52Zm3.41-14.15a16.89,16.89,0,0,0,12.83-5.24q5-5.25,5-13.46t-5-13.45a18.31,18.31,0,0,0-25.59-.07q-5.06,5.19-5.05,13.4a18.78,18.78,0,0,0,5.05,13.51A16.82,16.82,0,0,0,391.41,355.37Z" fill="#03a9f5"/>
    <path d="M333.76,307.73a29.69,29.69,0,0,0-15.93-4.34q-8,0-13.07,3.19a29,29,0,0,0-8.1,7.4l-1.78-9.06H280.34v89.26l16.32-10V359.5a22.49,22.49,0,0,0,8.67,7.52,27.6,27.6,0,0,0,12.51,2.68,30,30,0,0,0,15.93-4.28,30.74,30.74,0,0,0,11.1-11.73,37.75,37.75,0,0,0,0-34.1A31.11,31.11,0,0,0,333.76,307.73Zm-6.49,42.46a18.48,18.48,0,0,1-25.83-.06q-5-5.29-5-13.58t5-13.58a18.33,18.33,0,0,1,25.83.06,19.08,19.08,0,0,1,5.1,13.65q0,8.28-5.1,13.51Z" fill="#03a9f5"/>
    <path d="M478.36,303.4a24.93,24.93,0,0,0-13.07,3.31,22.22,22.22,0,0,0-8.48,8.93l-1.27-10.72H441.13v63.25h16.32V335.53q0-8.67,4.4-13.52a14.58,14.58,0,0,1,11.28-4.85q7,0,10.33,4.34t3.31,12.5v34.18H503.1v-35.7q0-14.28-6.51-21.68T478.36,303.4Z" fill="#03a9f5"/>
    <path d="M565.91,288v25.6a22.411,22.411,0,0,0-8.67-7.52,27.541,27.541,0,0,0-12.49-2.68,30.09,30.09,0,0,0-15.94,4.27,30.739,30.739,0,0,0-11.1,11.73,37.645,37.645,0,0,0,0,34.09,31,31,0,0,0,11.1,11.86,29.63,29.63,0,0,0,15.94,4.34q8,0,13.07-3.19a29,29,0,0,0,8.09-7.4l1.79,9.06h14.54V278Zm-4.78,62.13a18.32,18.32,0,0,1-25.82-.06,19,19,0,0,1-5.1-13.65q0-8.28,5.1-13.52a18.48,18.48,0,0,1,25.82.07q5,5.28,5,13.58t-5,13.58Z" fill="#03a9f5"/>
    <path d="M598.81,368.17h16.32V277.5l-16.32,10Z" fill="#03a9f5"/>
    <path d="M685.94,318.63a29.23,29.23,0,0,0-11.16-11.15,32.5,32.5,0,0,0-16.45-4.08,33.71,33.71,0,0,0-17.28,4.27,30,30,0,0,0-11.47,11.92,36.129,36.129,0,0,0-4.15,17.47,34,34,0,0,0,4.21,17.09,29.511,29.511,0,0,0,11.61,11.47,34.44,34.44,0,0,0,17,4.08,32.351,32.351,0,0,0,13.71-2.8,29.18,29.18,0,0,0,10.2-7.72,30,30,0,0,0,5.94-10.9H671.47a13.821,13.821,0,0,1-5,5.8,14.83,14.83,0,0,1-8.35,2.24,16.25,16.25,0,0,1-11.29-4.21c-3.1-2.81-4.82-6.67-5.16-11.61H689.7c.08-1.09.15-2.17.19-3.18s.07-2,.07-2.94a31.36,31.36,0,0,0-4.02-15.75ZM641.88,330.3q1.27-6.89,5.87-10.27a17.4,17.4,0,0,1,10.58-3.37,15.27,15.27,0,0,1,10.46,3.69,13.78,13.78,0,0,1,4.59,9.95Z" fill="#03a9f5"/>
  </g>
</svg>
