<svg height="32" viewBox="0 0 95 29" version="1.1" xmlns="http://www.w3.org/2000/svg" xmlns:xlink="http://www.w3.org/1999/xlink">
  <path d="M12.0666283,7.81344564 L12.0666283,10.134941 L5.23095042,18.6954553 L12.6483881,18.6954553 L12.6483881,21.8875115 L0.140552006,21.8875115 L0.140552006,19.5660161 L6.8889659,11.0055018 L0.722311824,11.0055018 L0.722311824,7.81344564 L12.0666283,7.81344564 Z M24.0088645,16.9543338 L24.0088645,12.7466234 C23.2234888,11.7019504 21.9727052,11.0055018 20.5183056,11.0055018 C18.3076183,11.0055018 16.8823068,12.8336794 16.8823068,14.8649879 C16.8823068,17.0704086 18.4821463,18.6954553 20.6055696,18.6954553 C22.0308812,18.6954553 23.2816648,17.9990067 24.0088645,16.9543338 Z M27.7903034,7.81344564 L27.7903034,21.8875115 L24.1543045,21.8875115 L24.1543045,20.7557825 C22.9907849,21.7424181 21.6527373,22.1776984 20.2274257,22.1776984 C18.1330904,22.1776984 16.155107,21.2491003 14.9043234,19.7981657 C13.7989797,18.5213432 13.100868,16.7802216 13.100868,14.8649879 C13.100868,10.7153149 16.184195,7.52325871 20.0238098,7.52325871 C21.6236493,7.52325871 23.0489608,8.04559518 24.1543045,8.94517464 L24.1543045,7.81344564 L27.7903034,7.81344564 Z M29.6648628,28.8519977 L29.6648628,7.81344564 L33.3008616,7.81344564 L33.3008616,8.94517464 C34.4062053,8.04559518 35.8315169,7.52325871 37.4313564,7.52325871 C41.2709712,7.52325871 44.3542982,10.7153149 44.3542982,14.8649879 C44.3542982,16.7802216 43.6852744,18.5213432 42.5799307,19.7981657 C41.3291471,21.2491003 39.3220758,22.1776984 37.2277404,22.1776984 C35.8024289,22.1776984 34.5807332,21.7714367 33.4463016,20.900876 L33.4463016,28.8519977 L29.6648628,28.8519977 Z M33.4463016,12.7466234 L33.4463016,16.9543338 C34.1735014,17.9990067 35.424285,18.6954553 36.8495965,18.6954553 C38.9730199,18.6954553 40.5728594,17.0704086 40.5728594,14.8649879 C40.5728594,12.8336794 39.1475478,11.0055018 36.9368605,11.0055018 C35.482461,11.0055018 34.2316774,11.7019504 33.4463016,12.7466234 Z M49.7517365,21.8875115 L45.9702977,21.8875115 L45.9702977,7.81344564 L49.6062966,7.81344564 L49.6062966,8.94517464 C50.6825522,8.07461387 52.0205998,7.52325871 53.5913513,7.52325871 C55.5402467,7.52325871 57.3146141,8.39381949 58.4781338,9.78671673 C59.4089495,10.889427 59.9325333,12.311343 59.9325333,14.7198945 L59.9325333,21.8875115 L56.1510945,21.8875115 L56.1510945,14.4297075 C56.1510945,13.0368103 55.8311266,12.311343 55.3075428,11.7890065 C54.8130469,11.2956887 54.0567592,11.0055018 53.1841194,11.0055018 C51.5842799,11.0055018 50.2753203,12.0211561 49.7517365,12.7466234 L49.7517365,21.8875115 Z M65.2976517,7.81344564 L65.2976517,21.8875115 L61.5162128,21.8875115 L61.5162128,7.81344564 L65.2976517,7.81344564 Z M60.934453,2.82223052 C60.934453,1.45835197 62.0397967,0.413679037 63.4069322,0.413679037 C64.7740678,0.413679037 65.8794115,1.45835197 65.8794115,2.82223052 C65.8794115,4.18610907 64.7740678,5.230782 63.4069322,5.230782 C62.0397967,5.230782 60.934453,4.18610907 60.934453,2.82223052 Z M80.4490669,20.9480562 C78.7967419,22.1776984 76.9238404,22.1776984 76.3381602,22.1776984 C74.0692969,22.1776984 72.4112814,21.4232124 71.4513777,20.14639 C70.724178,19.1887731 70.4042101,17.9409693 70.4042101,15.9386795 L70.4042101,11.0055018 L66.4773313,11.0055018 L66.4773313,7.81344564 L70.4042101,7.81344564 L70.4042101,3.89592214 L74.1856489,3.89592214 L74.1856489,7.81344564 L78.8397274,7.81344564 L78.8397274,10.9261116 C78.8264211,10.9524973 78.8132478,10.978961 78.8002082,11.0055018 L74.1856489,11.0055018 L74.1856489,16.3739599 C74.1856489,17.2445207 74.3310888,17.7668572 74.6510567,18.1441002 C75.0292006,18.5793806 75.6400484,18.8405488 76.5708641,18.8405488 C76.8833609,18.8405488 77.8675042,18.7220019 78.6638487,18.3741638 C79.0955016,19.3404532 79.701874,20.2110428 80.4490669,20.9480562 Z M79.2760473,14.8649879 C79.2760473,10.802371 82.5048143,7.52325871 86.7807489,7.52325871 C91.0566836,7.52325871 94.2854506,10.802371 94.2854506,14.8649879 C94.2854506,18.9276049 91.0566836,22.1776984 86.7807489,22.1776984 C82.5048143,22.1776984 79.2760473,18.9276049 79.2760473,14.8649879 Z M83.0574861,14.8649879 C83.0574861,16.9833525 84.5700616,18.6954553 86.7807489,18.6954553 C88.9914362,18.6954553 90.5040118,16.9833525 90.5040118,14.8649879 C90.5040118,12.7466234 88.9914362,11.0055018 86.7807489,11.0055018 C84.5700616,11.0055018 83.0574861,12.7466234 83.0574861,14.8649879 Z" id="Shape"></path>
</svg>
